<?xml version="1.0" standalone="no"?>
<!DOCTYPE svg PUBLIC "-//W3C//DTD SVG 20010904//EN"
 "http://www.w3.org/TR/2001/REC-SVG-20010904/DTD/svg10.dtd">
<svg version="1.0" xmlns="http://www.w3.org/2000/svg"
 width="600.000000pt" height="600.000000pt" viewBox="0 0 600.000000 600.000000"
 preserveAspectRatio="xMidYMid meet">
<metadata>
Created by potrace 1.14, written by Peter Selinger 2001-2017
</metadata>
<g transform="translate(0.000000,600.000000) scale(0.100000,-0.100000)"
fill="#000000" stroke="none">
<path d="M2983 4432 c-10 -9 -64 -73 -119 -142 -55 -69 -158 -197 -229 -284
-295 -361 -448 -555 -492 -621 -71 -107 -163 -318 -163 -375 0 -18 4 -17 47
10 48 31 84 41 49 15 -11 -8 -16 -15 -12 -15 4 0 -2 -13 -14 -30 -54 -76 -93
-206 -92 -306 1 -118 17 -191 69 -317 20 -48 34 -89 32 -90 -39 -30 -142 -97
-148 -97 -5 0 -15 -7 -22 -16 -12 -15 -11 -16 8 -10 27 9 99 9 143 1 55 -10
140 -61 210 -126 71 -66 185 -150 241 -179 l36 -19 49 33 c27 18 61 41 76 50
l28 18 -6 -29 c-15 -78 74 -148 227 -178 31 -7 206 -8 216 -2 5 3 31 7 60 11
100 12 262 72 373 138 55 34 161 117 205 162 64 66 165 202 165 222 0 3 8 18
18 32 31 44 79 183 102 293 41 192 87 278 216 398 62 58 70 69 39 51 -22 -13
-68 -46 -102 -72 -34 -26 -64 -48 -67 -48 -2 0 -47 -29 -99 -65 -52 -36 -98
-65 -102 -65 -4 0 0 11 9 24 57 88 74 149 69 244 -4 81 -59 208 -146 340 -42
62 -54 70 -85 53 -15 -8 -17 -3 -16 35 2 41 -4 50 -105 177 -58 73 -113 145
-121 161 -34 65 -5 181 61 240 50 46 50 53 -1 25 -22 -13 -40 -26 -40 -31 0
-4 -7 -8 -15 -8 -8 0 -15 -4 -15 -10 0 -5 -6 -10 -14 -10 -8 0 -16 -3 -18 -7
-3 -8 -138 -100 -175 -119 -21 -12 -21 -11 -7 22 23 55 18 125 -12 170 -23 35
-180 231 -194 244 -3 3 -21 25 -40 50 -55 71 -55 72 -77 52z"/>
<path d="M3960 4325 c-29 -19 -54 -35 -56 -35 -7 0 -95 -62 -92 -66 2 -2 34 8
71 21 37 14 68 25 70 24 1 0 21 3 44 7 64 10 108 62 67 78 -31 12 -53 6 -104
-29z"/>
<path d="M2411 4129 c-42 -46 -14 -111 50 -115 40 -3 73 38 65 81 -11 52 -79
72 -115 34z"/>
<path d="M3969 3524 c-34 -36 -32 -99 5 -131 78 -67 188 17 145 110 -23 52
-110 64 -150 21z"/>
<path d="M4688 3292 c-73 -48 -152 -100 -175 -115 -24 -15 -43 -32 -43 -37 0
-6 11 -3 24 6 32 20 114 42 190 49 169 15 252 62 242 134 -6 41 -19 51 -68 51
-30 0 -62 -17 -170 -88z"/>
<path d="M1662 2008 c-72 -52 -83 -64 -80 -87 2 -21 9 -27 33 -29 32 -3 32 -3
104 117 17 29 30 55 29 56 -2 2 -40 -24 -86 -57z"/>
</g>
</svg>
